<?xml version="1.0" encoding="utf-8"?>
<svg xmlns="http://www.w3.org/2000/svg" viewBox="0 0 500 500">
  <g transform="matrix(0.099999, -0.000433, -0.001251, -0.099995, -5892.368252, -6107.405364)" fill="#000000" stroke="none" style="transform-origin: 6173.23px 6303.5px;">
    <path d="M 5427.71 7237.48 C 5152.9 7024.5 4651.35 6635.85 4313.15 6373.76 C 3975.37 6112.04 3698.44 5896.48 3697.58 5895 C 3696.31 5892.01 3926.03 5664.17 3930.71 5664.17 C 3932.41 5664.17 4103.85 5795.96 4311.87 5957.54 C 4519.89 6118.73 4956.36 6456.78 5280.95 6708.48 C 5605.96 6960.49 5887.58 7178.63 5907.15 7193.14 L 5942.03 7220.32 L 6945.14 6442.26 C 7497.32 6014.5 7950.8 5664.55 7952.93 5664.55 C 7955.48 5664.55 8008.65 5715.93 8071.61 5778.47 C 8154.99 5861.49 8185.2 5893.51 8182.22 5897.23 C 8180.09 5899.83 7678.11 6289.62 7067.23 6763.53 C 6086.67 7523.05 5953.94 7624.64 5942.03 7625.02 C 5929.27 7625.4 5879.92 7587.81 5427.71 7237.48 Z" style="transform-box: fill-box; transform-origin: 50% 50%; fill: rgb(34, 197, 94); fill-rule: evenodd;"/>
    <path d="M 4364.62 7011.13 L 4364.62 6641.82 L 4378.66 6652.98 C 4391.85 6664.14 4923.18 7083.34 4924.88 7084.1 C 4924.88 7084.48 4927.01 7151.07 4928.71 7232.62 L 4931.69 7380.45 L 4647.94 7380.45 L 4364.62 7380.45 L 4364.62 7011.13 Z" style="transform-box: fill-box; transform-origin: 50% 50%; fill: rgb(34, 197, 94); fill-rule: evenodd;"/>
    <path d="M 5757.4 6817.14 C 5657.01 6739.01 5302.22 6463.85 4969.55 6206.23 L 4364.62 5737.51 L 4364.62 4854.82 C 4364.62 4007.86 4365.05 3971.38 4372.7 3957.23 C 4382.49 3938.24 4404.18 3919.63 4423.75 3913.67 C 4435.66 3909.94 4545.42 3908.83 4941.05 3908.83 L 5443.03 3908.83 L 5445.15 4305.32 C 5447.28 4672.03 5447.71 4702.55 5454.51 4713.72 C 5464.3 4729.36 5488.54 4746.48 5508.54 4751.69 C 5520.45 4754.68 5642.54 4755.79 5945.43 4755.79 C 6344.89 4755.79 6367.01 4755.42 6383.6 4748.72 C 6407.85 4739.03 6430.4 4714.46 6435.93 4691.75 C 6438.9 4679.47 6440.61 4545.82 6440.61 4290.43 L 6440.61 3906.97 L 6935.35 3906.97 C 7471.79 3906.97 7453.5 3906.22 7484.55 3927.07 C 7492.64 3932.28 7502.85 3943.82 7507.95 3952.76 L 7516.89 3968.77 L 7517.31 4852.96 L 7517.74 5736.77 L 7384.16 5841.01 C 7261.22 5937.06 5961.6 6944.09 5947.13 6954.49 C 5941.6 6958.29 5911.83 6936.65 5757.4 6817.14 Z" style="transform-box: fill-box; transform-origin: 50% 50%; fill: rgb(34, 197, 94); fill-rule: evenodd;"/>
    <path style="stroke: rgb(0, 0, 0); fill: rgb(255, 255, 255);" d="M 5337.352 4866.807 L 5315.447 4037.083 L 4508.683 4034.814 L 4517.415 5654.075 L 5937.437 6772.919 L 7404.165 5637.093 L 7369.961 4023.706 L 6559.93 4021.449 L 6536.026 4874.421 L 5337.352 4866.807 Z"/>
  </g>
  <path style="stroke: rgb(0, 0, 0); fill: rgb(255, 255, 255);" d="M 53.634 236.132 L 59.712 242.504 L 256.453 90.147 L 458.158 246.719 L 464.844 239.475 L 255.339 76.774 L 53.634 236.132 Z"/>
  <path style="stroke: rgb(0, 0, 0); fill: rgb(255, 255, 255);" d="M 114.994 103.413 L 115.62 126.58 L 137.534 112.179 L 136.282 102.16 L 114.994 103.413 Z"/>
  <path style="fill: rgb(216, 216, 216); stroke: rgb(0, 0, 0);" d="M 242.724 -37.745 L 239.593 -38.371"/>
</svg>